<svg width="18.998779" height="18.523743" viewBox="0 0 18.9988 18.5237" fill="none" xmlns="http://www.w3.org/2000/svg" xmlns:xlink="http://www.w3.org/1999/xlink">
	<desc>
			Created with Pixso.
	</desc>
	<defs/>
	<path id="monetization_on" d="M8.64 15.74L10.3 15.74L10.3 14.58C11.09 14.44 11.77 14.14 12.34 13.68C12.91 13.22 13.2 12.53 13.2 11.62C13.2 10.97 13.01 10.38 12.63 9.84C12.25 9.3 11.49 8.82 10.35 8.42C9.4 8.11 8.74 7.84 8.38 7.61C8.01 7.38 7.83 7.06 7.83 6.66C7.83 6.26 7.98 5.95 8.27 5.71C8.56 5.48 8.99 5.37 9.54 5.37C10.05 5.37 10.44 5.49 10.73 5.73C11.01 5.97 11.22 6.26 11.35 6.62L12.87 6.02C12.69 5.47 12.37 5 11.9 4.6C11.44 4.2 10.92 3.98 10.35 3.93L10.35 2.77L8.69 2.77L8.69 3.93C7.9 4.1 7.28 4.44 6.83 4.95C6.39 5.46 6.17 6.03 6.17 6.66C6.17 7.39 6.39 7.98 6.82 8.42C7.26 8.87 7.94 9.26 8.88 9.58C9.87 9.94 10.57 10.25 10.96 10.53C11.34 10.81 11.54 11.17 11.54 11.62C11.54 12.13 11.35 12.5 10.98 12.74C10.61 12.98 10.16 13.1 9.64 13.1C9.11 13.1 8.65 12.94 8.25 12.63C7.84 12.31 7.55 11.83 7.36 11.2L5.79 11.8C6.01 12.54 6.36 13.14 6.82 13.6C7.29 14.05 7.9 14.37 8.64 14.54L8.64 15.74ZM9.49 18.52C8.18 18.52 6.95 18.28 5.79 17.79C4.63 17.3 3.63 16.64 2.77 15.81C1.92 14.98 1.24 14 0.74 12.87C0.24 11.74 0 10.54 0 9.26C0 7.98 0.24 6.77 0.74 5.64C1.24 4.52 1.92 3.54 2.77 2.7C3.63 1.87 4.63 1.21 5.79 0.72C6.95 0.24 8.18 0 9.49 0C10.81 0 12.04 0.24 13.2 0.72C14.35 1.21 15.36 1.87 16.22 2.7C17.07 3.54 17.75 4.52 18.25 5.64C18.74 6.77 18.99 7.98 18.99 9.26C18.99 10.54 18.74 11.74 18.25 12.87C17.75 14 17.07 14.98 16.22 15.81C15.36 16.64 14.35 17.3 13.2 17.79C12.04 18.28 10.81 18.52 9.49 18.52Z" fill="#FFFFFF" fill-opacity="1.000000" fill-rule="nonzero"/>
</svg>
